# Tiled2Unity generated file. Do not modify by hand.
# Wavefront file for 'LeftDungeonDown_mesh_0003.obj'

# Vertices (Count = 124)
v -112 -80 0
v -128 -80 0
v -128 -64 0
v -112 -64 0
v -176 -80 0
v -192 -80 0
v -192 -64 0
v -176 -64 0
v -64 -96 0
v -80 -96 0
v -80 -80 0
v -64 -80 0
v -224 -96 0
v -240 -96 0
v -240 -80 0
v -224 -80 0
v -48 -176 0
v -64 -176 0
v -64 -160 0
v -48 -160 0
v -240 -192 0
v -256 -192 0
v -256 -176 0
v -240 -176 0
v -304 -192 0
v -320 -192 0
v -320 -176 0
v -304 -176 0
v -320 -208 0
v -336 -208 0
v -336 -192 0
v -320 -192 0
v -240 -240 0
v -256 -240 0
v -256 -224 0
v -240 -224 0
v -48 -272 0
v -64 -272 0
v -64 -256 0
v -48 -256 0
v -48 -352 0
v -64 -352 0
v -64 -336 0
v -48 -336 0
v -240 -384 0
v -256 -384 0
v -256 -368 0
v -240 -368 0
v -48 -416 0
v -64 -416 0
v -64 -400 0
v -48 -400 0
v -64 -432 0
v -80 -432 0
v -80 -416 0
v -64 -416 0
v -224 -432 0
v -240 -432 0
v -240 -416 0
v -224 -416 0
v -80 -448 0
v -96 -448 0
v -96 -432 0
v -80 -432 0
v -144 -448 0
v -160 -448 0
v -160 -432 0
v -144 -432 0
v -192 -448 0
v -208 -448 0
v -208 -432 0
v -192 -432 0
v -112 -464 0
v -128 -464 0
v -128 -448 0
v -112 -448 0
v -224 -464 0
v -240 -464 0
v -240 -448 0
v -224 -448 0
v -240 -480 0
v -256 -480 0
v -256 -464 0
v -240 -464 0
v -272 -480 0
v -288 -480 0
v -288 -464 0
v -272 -464 0
v -96 -496 0
v -112 -496 0
v -112 -480 0
v -96 -480 0
v -240 -512 0
v -256 -512 0
v -256 -496 0
v -240 -496 0
v -272 -512 0
v -288 -512 0
v -288 -496 0
v -272 -496 0
v -96 -528 0
v -112 -528 0
v -112 -512 0
v -96 -512 0
v -112 -560 0
v -128 -560 0
v -128 -544 0
v -112 -544 0
v -224 -560 0
v -240 -560 0
v -240 -544 0
v -224 -544 0
v -144 -576 0
v -160 -576 0
v -160 -560 0
v -144 -560 0
v -192 -576 0
v -208 -576 0
v -208 -560 0
v -192 -560 0
v -288 -576 0
v -304 -576 0
v -304 -560 0
v -288 -560 0

# Texture cooridinates (Count = 20)
vt 0.3161157 0.7110266
vt 0.3326446 0.7110266
vt 0.3326446 0.7414448
vt 0.3161157 0.7414448
vt 0.2985537 0.7110266
vt 0.3150826 0.7110266
vt 0.3150826 0.7414448
vt 0.2985537 0.7414448
vt 0.2458678 0.7110266
vt 0.2623967 0.7110266
vt 0.2623967 0.7414448
vt 0.2458678 0.7414448
vt 0.2634298 0.7110266
vt 0.2799587 0.7110266
vt 0.2799587 0.7414448
vt 0.2634298 0.7414448
vt 0.4741735 0.3878327
vt 0.4907025 0.3878327
vt 0.4907025 0.418251
vt 0.4741735 0.418251

# Normal
vn 0 0 -1

# Mesh description
g LeftDungeonDown_mesh_0003

# Faces
f 1/1/1 2/2/1 3/3/1 4/4/1
f 5/5/1 6/6/1 7/7/1 8/8/1
f 9/9/1 10/10/1 11/11/1 12/12/1
f 13/13/1 14/14/1 15/15/1 16/16/1
f 17/1/1 18/2/1 19/3/1 20/4/1
f 21/1/1 22/2/1 23/3/1 24/4/1
f 25/5/1 26/6/1 27/7/1 28/8/1
f 29/1/1 30/2/1 31/3/1 32/4/1
f 33/5/1 34/6/1 35/7/1 36/8/1
f 37/5/1 38/6/1 39/7/1 40/8/1
f 41/1/1 42/2/1 43/3/1 44/4/1
f 45/5/1 46/6/1 47/7/1 48/8/1
f 49/1/1 50/2/1 51/3/1 52/4/1
f 53/9/1 54/10/1 55/11/1 56/12/1
f 57/13/1 58/14/1 59/15/1 60/16/1
f 61/5/1 62/6/1 63/7/1 64/8/1
f 65/1/1 66/2/1 67/3/1 68/4/1
f 69/1/1 70/2/1 71/3/1 72/4/1
f 73/13/1 74/14/1 75/15/1 76/16/1
f 77/9/1 78/10/1 79/11/1 80/12/1
f 81/5/1 82/6/1 83/7/1 84/8/1
f 85/1/1 86/2/1 87/3/1 88/4/1
f 89/5/1 90/6/1 91/7/1 92/8/1
f 93/1/1 94/2/1 95/3/1 96/4/1
f 97/5/1 98/6/1 99/7/1 100/8/1
f 101/1/1 102/2/1 103/3/1 104/4/1
f 105/9/1 106/10/1 107/11/1 108/12/1
f 109/13/1 110/14/1 111/15/1 112/16/1
f 113/5/1 114/6/1 115/7/1 116/8/1
f 117/1/1 118/2/1 119/3/1 120/4/1
f 121/17/1 122/18/1 123/19/1 124/20/1

