# Tiled2Unity generated file. Do not modify by hand.
# Wavefront file for 'RightDungeonDown_mesh_0003.obj'

# Vertices (Count = 124)
v -256 -80 0
v -272 -80 0
v -272 -64 0
v -256 -64 0
v -320 -80 0
v -336 -80 0
v -336 -64 0
v -320 -64 0
v -208 -96 0
v -224 -96 0
v -224 -80 0
v -208 -80 0
v -368 -96 0
v -384 -96 0
v -384 -80 0
v -368 -80 0
v -384 -160 0
v -400 -160 0
v -400 -144 0
v -384 -144 0
v -128 -192 0
v -144 -192 0
v -144 -176 0
v -128 -176 0
v -192 -192 0
v -208 -192 0
v -208 -176 0
v -192 -176 0
v -112 -208 0
v -128 -208 0
v -128 -192 0
v -112 -192 0
v -192 -240 0
v -208 -240 0
v -208 -224 0
v -192 -224 0
v -384 -256 0
v -400 -256 0
v -400 -240 0
v -384 -240 0
v -384 -352 0
v -400 -352 0
v -400 -336 0
v -384 -336 0
v -192 -384 0
v -208 -384 0
v -208 -368 0
v -192 -368 0
v -384 -416 0
v -400 -416 0
v -400 -400 0
v -384 -400 0
v -208 -432 0
v -224 -432 0
v -224 -416 0
v -208 -416 0
v -368 -432 0
v -384 -432 0
v -384 -416 0
v -368 -416 0
v -240 -448 0
v -256 -448 0
v -256 -432 0
v -240 -432 0
v -288 -448 0
v -304 -448 0
v -304 -432 0
v -288 -432 0
v -352 -448 0
v -368 -448 0
v -368 -432 0
v -352 -432 0
v -208 -464 0
v -224 -464 0
v -224 -448 0
v -208 -448 0
v -320 -464 0
v -336 -464 0
v -336 -448 0
v -320 -448 0
v -160 -480 0
v -176 -480 0
v -176 -464 0
v -160 -464 0
v -192 -480 0
v -208 -480 0
v -208 -464 0
v -192 -464 0
v -336 -496 0
v -352 -496 0
v -352 -480 0
v -336 -480 0
v -160 -512 0
v -176 -512 0
v -176 -496 0
v -160 -496 0
v -192 -512 0
v -208 -512 0
v -208 -496 0
v -192 -496 0
v -336 -528 0
v -352 -528 0
v -352 -512 0
v -336 -512 0
v -208 -560 0
v -224 -560 0
v -224 -544 0
v -208 -544 0
v -320 -560 0
v -336 -560 0
v -336 -544 0
v -320 -544 0
v -144 -576 0
v -160 -576 0
v -160 -560 0
v -144 -560 0
v -240 -576 0
v -256 -576 0
v -256 -560 0
v -240 -560 0
v -288 -576 0
v -304 -576 0
v -304 -560 0
v -288 -560 0

# Texture cooridinates (Count = 20)
vt 0.3161157 0.7110266
vt 0.3326446 0.7110266
vt 0.3326446 0.7414448
vt 0.3161157 0.7414448
vt 0.2985537 0.7110266
vt 0.3150826 0.7110266
vt 0.3150826 0.7414448
vt 0.2985537 0.7414448
vt 0.2634298 0.7110266
vt 0.2799587 0.7110266
vt 0.2799587 0.7414448
vt 0.2634298 0.7414448
vt 0.2458678 0.7110266
vt 0.2623967 0.7110266
vt 0.2623967 0.7414448
vt 0.2458678 0.7414448
vt 0.4917355 0.3878327
vt 0.5082645 0.3878327
vt 0.5082645 0.418251
vt 0.4917355 0.418251

# Normal
vn 0 0 -1

# Mesh description
g RightDungeonDown_mesh_0003

# Faces
f 1/1/1 2/2/1 3/3/1 4/4/1
f 5/5/1 6/6/1 7/7/1 8/8/1
f 9/9/1 10/10/1 11/11/1 12/12/1
f 13/13/1 14/14/1 15/15/1 16/16/1
f 17/5/1 18/6/1 19/7/1 20/8/1
f 21/5/1 22/6/1 23/7/1 24/8/1
f 25/5/1 26/6/1 27/7/1 28/8/1
f 29/5/1 30/6/1 31/7/1 32/8/1
f 33/5/1 34/6/1 35/7/1 36/8/1
f 37/5/1 38/6/1 39/7/1 40/8/1
f 41/5/1 42/6/1 43/7/1 44/8/1
f 45/5/1 46/6/1 47/7/1 48/8/1
f 49/5/1 50/6/1 51/7/1 52/8/1
f 53/9/1 54/10/1 55/11/1 56/12/1
f 57/13/1 58/14/1 59/15/1 60/16/1
f 61/5/1 62/6/1 63/7/1 64/8/1
f 65/1/1 66/2/1 67/3/1 68/4/1
f 69/5/1 70/6/1 71/7/1 72/8/1
f 73/9/1 74/10/1 75/11/1 76/12/1
f 77/13/1 78/14/1 79/15/1 80/16/1
f 81/5/1 82/6/1 83/7/1 84/8/1
f 85/5/1 86/6/1 87/7/1 88/8/1
f 89/1/1 90/2/1 91/3/1 92/4/1
f 93/5/1 94/6/1 95/7/1 96/8/1
f 97/5/1 98/6/1 99/7/1 100/8/1
f 101/1/1 102/2/1 103/3/1 104/4/1
f 105/9/1 106/10/1 107/11/1 108/12/1
f 109/13/1 110/14/1 111/15/1 112/16/1
f 113/17/1 114/18/1 115/19/1 116/20/1
f 117/5/1 118/6/1 119/7/1 120/8/1
f 121/5/1 122/6/1 123/7/1 124/8/1

