# Tiled2Unity generated file. Do not modify by hand.
# Wavefront file for 'Dungeon_mesh_0003.obj'

# Vertices (Count = 300)
v -32 -32 0
v -48 -32 0
v -48 -16 0
v -32 -16 0
v -48 -32 0
v -64 -32 0
v -64 -16 0
v -48 -16 0
v -64 -32 0
v -80 -32 0
v -80 -16 0
v -64 -16 0
v -80 -32 0
v -96 -32 0
v -96 -16 0
v -80 -16 0
v -96 -32 0
v -112 -32 0
v -112 -16 0
v -96 -16 0
v -112 -32 0
v -128 -32 0
v -128 -16 0
v -112 -16 0
v -128 -32 0
v -144 -32 0
v -144 -16 0
v -128 -16 0
v -144 -32 0
v -160 -32 0
v -160 -16 0
v -144 -16 0
v -160 -32 0
v -176 -32 0
v -176 -16 0
v -160 -16 0
v -176 -32 0
v -192 -32 0
v -192 -16 0
v -176 -16 0
v -192 -32 0
v -208 -32 0
v -208 -16 0
v -192 -16 0
v -208 -32 0
v -224 -32 0
v -224 -16 0
v -208 -16 0
v -224 -32 0
v -240 -32 0
v -240 -16 0
v -224 -16 0
v -240 -32 0
v -256 -32 0
v -256 -16 0
v -240 -16 0
v -256 -32 0
v -272 -32 0
v -272 -16 0
v -256 -16 0
v -272 -32 0
v -288 -32 0
v -288 -16 0
v -272 -16 0
v -288 -32 0
v -304 -32 0
v -304 -16 0
v -288 -16 0
v -304 -32 0
v -320 -32 0
v -320 -16 0
v -304 -16 0
v -320 -32 0
v -336 -32 0
v -336 -16 0
v -320 -16 0
v -336 -32 0
v -352 -32 0
v -352 -16 0
v -336 -16 0
v -352 -32 0
v -368 -32 0
v -368 -16 0
v -352 -16 0
v -32 -48 0
v -48 -48 0
v -48 -32 0
v -32 -32 0
v -352 -48 0
v -368 -48 0
v -368 -32 0
v -352 -32 0
v -32 -64 0
v -48 -64 0
v -48 -48 0
v -32 -48 0
v -352 -64 0
v -368 -64 0
v -368 -48 0
v -352 -48 0
v -32 -80 0
v -48 -80 0
v -48 -64 0
v -32 -64 0
v -352 -80 0
v -368 -80 0
v -368 -64 0
v -352 -64 0
v -32 -96 0
v -48 -96 0
v -48 -80 0
v -32 -80 0
v -352 -96 0
v -368 -96 0
v -368 -80 0
v -352 -80 0
v -32 -112 0
v -48 -112 0
v -48 -96 0
v -32 -96 0
v -352 -112 0
v -368 -112 0
v -368 -96 0
v -352 -96 0
v -32 -128 0
v -48 -128 0
v -48 -112 0
v -32 -112 0
v -352 -128 0
v -368 -128 0
v -368 -112 0
v -352 -112 0
v -32 -144 0
v -48 -144 0
v -48 -128 0
v -32 -128 0
v -352 -144 0
v -368 -144 0
v -368 -128 0
v -352 -128 0
v -32 -160 0
v -48 -160 0
v -48 -144 0
v -32 -144 0
v -48 -160 0
v -64 -160 0
v -64 -144 0
v -48 -144 0
v -64 -160 0
v -80 -160 0
v -80 -144 0
v -64 -144 0
v -80 -160 0
v -96 -160 0
v -96 -144 0
v -80 -144 0
v -96 -160 0
v -112 -160 0
v -112 -144 0
v -96 -144 0
v -112 -160 0
v -128 -160 0
v -128 -144 0
v -112 -144 0
v -128 -160 0
v -144 -160 0
v -144 -144 0
v -128 -144 0
v -144 -160 0
v -160 -160 0
v -160 -144 0
v -144 -144 0
v -160 -160 0
v -176 -160 0
v -176 -144 0
v -160 -144 0
v -176 -160 0
v -192 -160 0
v -192 -144 0
v -176 -144 0
v -208 -160 0
v -224 -160 0
v -224 -144 0
v -208 -144 0
v -224 -160 0
v -240 -160 0
v -240 -144 0
v -224 -144 0
v -240 -160 0
v -256 -160 0
v -256 -144 0
v -240 -144 0
v -256 -160 0
v -272 -160 0
v -272 -144 0
v -256 -144 0
v -272 -160 0
v -288 -160 0
v -288 -144 0
v -272 -144 0
v -288 -160 0
v -304 -160 0
v -304 -144 0
v -288 -144 0
v -304 -160 0
v -320 -160 0
v -320 -144 0
v -304 -144 0
v -320 -160 0
v -336 -160 0
v -336 -144 0
v -320 -144 0
v -336 -160 0
v -352 -160 0
v -352 -144 0
v -336 -144 0
v -352 -160 0
v -368 -160 0
v -368 -144 0
v -352 -144 0
v -160 -176 0
v -176 -176 0
v -176 -160 0
v -160 -160 0
v -224 -176 0
v -240 -176 0
v -240 -160 0
v -224 -160 0
v -128 -192 0
v -144 -192 0
v -144 -176 0
v -128 -176 0
v -256 -192 0
v -272 -192 0
v -272 -176 0
v -256 -176 0
v -128 -272 0
v -144 -272 0
v -144 -256 0
v -128 -256 0
v -256 -272 0
v -272 -272 0
v -272 -256 0
v -256 -256 0
v -176 -288 0
v -192 -288 0
v -192 -272 0
v -176 -272 0
v -208 -288 0
v -224 -288 0
v -224 -272 0
v -208 -272 0
v -160 -368 0
v -176 -368 0
v -176 -352 0
v -160 -352 0
v -224 -368 0
v -240 -368 0
v -240 -352 0
v -224 -352 0
v -160 -400 0
v -176 -400 0
v -176 -384 0
v -160 -384 0
v -224 -400 0
v -240 -400 0
v -240 -384 0
v -224 -384 0
v -32 -672 0
v -48 -672 0
v -48 -656 0
v -32 -656 0
v -80 -672 0
v -96 -672 0
v -96 -656 0
v -80 -656 0
v -128 -672 0
v -144 -672 0
v -144 -656 0
v -128 -656 0
v -176 -672 0
v -192 -672 0
v -192 -656 0
v -176 -656 0
v -208 -672 0
v -224 -672 0
v -224 -656 0
v -208 -656 0
v -256 -672 0
v -272 -672 0
v -272 -656 0
v -256 -656 0
v -304 -672 0
v -320 -672 0
v -320 -656 0
v -304 -656 0
v -352 -672 0
v -368 -672 0
v -368 -656 0
v -352 -656 0

# Texture cooridinates (Count = 24)
vt 0.2634298 0.7110266
vt 0.2799587 0.7110266
vt 0.2799587 0.7414448
vt 0.2634298 0.7414448
vt 0.2458678 0.7110266
vt 0.2623967 0.7110266
vt 0.2623967 0.7414448
vt 0.2458678 0.7414448
vt 0.2985537 0.7110266
vt 0.3150826 0.7110266
vt 0.3150826 0.7414448
vt 0.2985537 0.7414448
vt 0.3161157 0.7110266
vt 0.3326446 0.7110266
vt 0.3326446 0.7414448
vt 0.3161157 0.7414448
vt 0.5092975 0.3878327
vt 0.5258265 0.3878327
vt 0.5258265 0.418251
vt 0.5092975 0.418251
vt 0.5268595 0.3878327
vt 0.5433884 0.3878327
vt 0.5433884 0.418251
vt 0.5268595 0.418251

# Normal
vn 0 0 -1

# Mesh description
g Dungeon_mesh_0003

# Faces
f 1/1/1 2/2/1 3/3/1 4/4/1
f 5/1/1 6/2/1 7/3/1 8/4/1
f 9/1/1 10/2/1 11/3/1 12/4/1
f 13/1/1 14/2/1 15/3/1 16/4/1
f 17/1/1 18/2/1 19/3/1 20/4/1
f 21/1/1 22/2/1 23/3/1 24/4/1
f 25/1/1 26/2/1 27/3/1 28/4/1
f 29/1/1 30/2/1 31/3/1 32/4/1
f 33/1/1 34/2/1 35/3/1 36/4/1
f 37/1/1 38/2/1 39/3/1 40/4/1
f 41/1/1 42/2/1 43/3/1 44/4/1
f 45/5/1 46/6/1 47/7/1 48/8/1
f 49/5/1 50/6/1 51/7/1 52/8/1
f 53/5/1 54/6/1 55/7/1 56/8/1
f 57/5/1 58/6/1 59/7/1 60/8/1
f 61/5/1 62/6/1 63/7/1 64/8/1
f 65/5/1 66/6/1 67/7/1 68/8/1
f 69/5/1 70/6/1 71/7/1 72/8/1
f 73/5/1 74/6/1 75/7/1 76/8/1
f 77/5/1 78/6/1 79/7/1 80/8/1
f 81/5/1 82/6/1 83/7/1 84/8/1
f 85/1/1 86/2/1 87/3/1 88/4/1
f 89/5/1 90/6/1 91/7/1 92/8/1
f 93/1/1 94/2/1 95/3/1 96/4/1
f 97/5/1 98/6/1 99/7/1 100/8/1
f 101/1/1 102/2/1 103/3/1 104/4/1
f 105/5/1 106/6/1 107/7/1 108/8/1
f 109/1/1 110/2/1 111/3/1 112/4/1
f 113/5/1 114/6/1 115/7/1 116/8/1
f 117/1/1 118/2/1 119/3/1 120/4/1
f 121/5/1 122/6/1 123/7/1 124/8/1
f 125/1/1 126/2/1 127/3/1 128/4/1
f 129/5/1 130/6/1 131/7/1 132/8/1
f 133/1/1 134/2/1 135/3/1 136/4/1
f 137/5/1 138/6/1 139/7/1 140/8/1
f 141/1/1 142/2/1 143/3/1 144/4/1
f 145/1/1 146/2/1 147/3/1 148/4/1
f 149/1/1 150/2/1 151/3/1 152/4/1
f 153/1/1 154/2/1 155/3/1 156/4/1
f 157/1/1 158/2/1 159/3/1 160/4/1
f 161/1/1 162/2/1 163/3/1 164/4/1
f 165/1/1 166/2/1 167/3/1 168/4/1
f 169/1/1 170/2/1 171/3/1 172/4/1
f 173/1/1 174/2/1 175/3/1 176/4/1
f 177/1/1 178/2/1 179/3/1 180/4/1
f 181/5/1 182/6/1 183/7/1 184/8/1
f 185/5/1 186/6/1 187/7/1 188/8/1
f 189/5/1 190/6/1 191/7/1 192/8/1
f 193/5/1 194/6/1 195/7/1 196/8/1
f 197/5/1 198/6/1 199/7/1 200/8/1
f 201/5/1 202/6/1 203/7/1 204/8/1
f 205/5/1 206/6/1 207/7/1 208/8/1
f 209/5/1 210/6/1 211/7/1 212/8/1
f 213/5/1 214/6/1 215/7/1 216/8/1
f 217/5/1 218/6/1 219/7/1 220/8/1
f 221/9/1 222/10/1 223/11/1 224/12/1
f 225/13/1 226/14/1 227/15/1 228/16/1
f 229/1/1 230/2/1 231/3/1 232/4/1
f 233/5/1 234/6/1 235/7/1 236/8/1
f 237/1/1 238/2/1 239/3/1 240/4/1
f 241/5/1 242/6/1 243/7/1 244/8/1
f 245/9/1 246/10/1 247/11/1 248/12/1
f 249/13/1 250/14/1 251/15/1 252/16/1
f 253/5/1 254/6/1 255/7/1 256/8/1
f 257/1/1 258/2/1 259/3/1 260/4/1
f 261/5/1 262/6/1 263/7/1 264/8/1
f 265/1/1 266/2/1 267/3/1 268/4/1
f 269/9/1 270/10/1 271/11/1 272/12/1
f 273/9/1 274/10/1 275/11/1 276/12/1
f 277/17/1 278/18/1 279/19/1 280/20/1
f 281/9/1 282/10/1 283/11/1 284/12/1
f 285/13/1 286/14/1 287/15/1 288/16/1
f 289/21/1 290/22/1 291/23/1 292/24/1
f 293/13/1 294/14/1 295/15/1 296/16/1
f 297/13/1 298/14/1 299/15/1 300/16/1

