# Tiled2Unity generated file. Do not modify by hand.
# Wavefront file for 'test_area_mesh_0003.obj'

# Vertices (Count = 320)
v -528 -624 0
v -544 -624 0
v -544 -608 0
v -528 -608 0
v -512 -624 0
v -528 -624 0
v -528 -608 0
v -512 -608 0
v -496 -624 0
v -512 -624 0
v -512 -608 0
v -496 -608 0
v -480 -624 0
v -496 -624 0
v -496 -608 0
v -480 -608 0
v -464 -624 0
v -480 -624 0
v -480 -608 0
v -464 -608 0
v -448 -624 0
v -464 -624 0
v -464 -608 0
v -448 -608 0
v -432 -624 0
v -448 -624 0
v -448 -608 0
v -432 -608 0
v -416 -624 0
v -432 -624 0
v -432 -608 0
v -416 -608 0
v -400 -624 0
v -416 -624 0
v -416 -608 0
v -400 -608 0
v -384 -624 0
v -400 -624 0
v -400 -608 0
v -384 -608 0
v -368 -624 0
v -384 -624 0
v -384 -608 0
v -368 -608 0
v -352 -624 0
v -368 -624 0
v -368 -608 0
v -352 -608 0
v -336 -624 0
v -352 -624 0
v -352 -608 0
v -336 -608 0
v -320 -624 0
v -336 -624 0
v -336 -608 0
v -320 -608 0
v -304 -624 0
v -320 -624 0
v -320 -608 0
v -304 -608 0
v -288 -624 0
v -304 -624 0
v -304 -608 0
v -288 -608 0
v -528 -640 0
v -544 -640 0
v -544 -624 0
v -528 -624 0
v -512 -640 0
v -528 -640 0
v -528 -624 0
v -512 -624 0
v -496 -640 0
v -512 -640 0
v -512 -624 0
v -496 -624 0
v -480 -640 0
v -496 -640 0
v -496 -624 0
v -480 -624 0
v -464 -640 0
v -480 -640 0
v -480 -624 0
v -464 -624 0
v -448 -640 0
v -464 -640 0
v -464 -624 0
v -448 -624 0
v -432 -640 0
v -448 -640 0
v -448 -624 0
v -432 -624 0
v -288 -640 0
v -304 -640 0
v -304 -624 0
v -288 -624 0
v -528 -656 0
v -544 -656 0
v -544 -640 0
v -528 -640 0
v -512 -656 0
v -528 -656 0
v -528 -640 0
v -512 -640 0
v -496 -656 0
v -512 -656 0
v -512 -640 0
v -496 -640 0
v -480 -656 0
v -496 -656 0
v -496 -640 0
v -480 -640 0
v -464 -656 0
v -480 -656 0
v -480 -640 0
v -464 -640 0
v -288 -656 0
v -304 -656 0
v -304 -640 0
v -288 -640 0
v -528 -672 0
v -544 -672 0
v -544 -656 0
v -528 -656 0
v -512 -672 0
v -528 -672 0
v -528 -656 0
v -512 -656 0
v -496 -672 0
v -512 -672 0
v -512 -656 0
v -496 -656 0
v -480 -672 0
v -496 -672 0
v -496 -656 0
v -480 -656 0
v -288 -672 0
v -304 -672 0
v -304 -656 0
v -288 -656 0
v -528 -688 0
v -544 -688 0
v -544 -672 0
v -528 -672 0
v -512 -688 0
v -528 -688 0
v -528 -672 0
v -512 -672 0
v -288 -688 0
v -304 -688 0
v -304 -672 0
v -288 -672 0
v -528 -704 0
v -544 -704 0
v -544 -688 0
v -528 -688 0
v -288 -704 0
v -304 -704 0
v -304 -688 0
v -288 -688 0
v -288 -720 0
v -304 -720 0
v -304 -704 0
v -288 -704 0
v -288 -736 0
v -304 -736 0
v -304 -720 0
v -288 -720 0
v -528 -752 0
v -544 -752 0
v -544 -736 0
v -528 -736 0
v -288 -752 0
v -304 -752 0
v -304 -736 0
v -288 -736 0
v -528 -768 0
v -544 -768 0
v -544 -752 0
v -528 -752 0
v -512 -768 0
v -528 -768 0
v -528 -752 0
v -512 -752 0
v -288 -768 0
v -304 -768 0
v -304 -752 0
v -288 -752 0
v -528 -784 0
v -544 -784 0
v -544 -768 0
v -528 -768 0
v -512 -784 0
v -528 -784 0
v -528 -768 0
v -512 -768 0
v -496 -784 0
v -512 -784 0
v -512 -768 0
v -496 -768 0
v -288 -784 0
v -304 -784 0
v -304 -768 0
v -288 -768 0
v -528 -800 0
v -544 -800 0
v -544 -784 0
v -528 -784 0
v -512 -800 0
v -528 -800 0
v -528 -784 0
v -512 -784 0
v -496 -800 0
v -512 -800 0
v -512 -784 0
v -496 -784 0
v -480 -800 0
v -496 -800 0
v -496 -784 0
v -480 -784 0
v -288 -800 0
v -304 -800 0
v -304 -784 0
v -288 -784 0
v -528 -816 0
v -544 -816 0
v -544 -800 0
v -528 -800 0
v -512 -816 0
v -528 -816 0
v -528 -800 0
v -512 -800 0
v -496 -816 0
v -512 -816 0
v -512 -800 0
v -496 -800 0
v -480 -816 0
v -496 -816 0
v -496 -800 0
v -480 -800 0
v -464 -816 0
v -480 -816 0
v -480 -800 0
v -464 -800 0
v -448 -816 0
v -464 -816 0
v -464 -800 0
v -448 -800 0
v -432 -816 0
v -448 -816 0
v -448 -800 0
v -432 -800 0
v -288 -816 0
v -304 -816 0
v -304 -800 0
v -288 -800 0
v -528 -832 0
v -544 -832 0
v -544 -816 0
v -528 -816 0
v -512 -832 0
v -528 -832 0
v -528 -816 0
v -512 -816 0
v -496 -832 0
v -512 -832 0
v -512 -816 0
v -496 -816 0
v -480 -832 0
v -496 -832 0
v -496 -816 0
v -480 -816 0
v -464 -832 0
v -480 -832 0
v -480 -816 0
v -464 -816 0
v -448 -832 0
v -464 -832 0
v -464 -816 0
v -448 -816 0
v -432 -832 0
v -448 -832 0
v -448 -816 0
v -432 -816 0
v -416 -832 0
v -432 -832 0
v -432 -816 0
v -416 -816 0
v -400 -832 0
v -416 -832 0
v -416 -816 0
v -400 -816 0
v -384 -832 0
v -400 -832 0
v -400 -816 0
v -384 -816 0
v -368 -832 0
v -384 -832 0
v -384 -816 0
v -368 -816 0
v -352 -832 0
v -368 -832 0
v -368 -816 0
v -352 -816 0
v -336 -832 0
v -352 -832 0
v -352 -816 0
v -336 -816 0
v -320 -832 0
v -336 -832 0
v -336 -816 0
v -320 -816 0
v -304 -832 0
v -320 -832 0
v -320 -816 0
v -304 -816 0
v -288 -832 0
v -304 -832 0
v -304 -816 0
v -288 -816 0

# Texture cooridinates (Count = 12)
vt 0.2634298 0.6787072
vt 0.2799587 0.6787072
vt 0.2799587 0.7091255
vt 0.2634298 0.7091255
vt 0.3161157 0.6463878
vt 0.3326446 0.6463878
vt 0.3326446 0.6768061
vt 0.3161157 0.6768061
vt 0.3161157 0.6140684
vt 0.3326446 0.6140684
vt 0.3326446 0.6444867
vt 0.3161157 0.6444867

# Normal
vn 0 0 -1

# Mesh description
g test_area_mesh_0003

# Faces
f 1/1/1 2/2/1 3/3/1 4/4/1
f 5/5/1 6/6/1 7/7/1 8/8/1
f 9/5/1 10/6/1 11/7/1 12/8/1
f 13/1/1 14/2/1 15/3/1 16/4/1
f 17/5/1 18/6/1 19/7/1 20/8/1
f 21/5/1 22/6/1 23/7/1 24/8/1
f 25/5/1 26/6/1 27/7/1 28/8/1
f 29/1/1 30/2/1 31/3/1 32/4/1
f 33/1/1 34/2/1 35/3/1 36/4/1
f 37/1/1 38/2/1 39/3/1 40/4/1
f 41/1/1 42/2/1 43/3/1 44/4/1
f 45/1/1 46/2/1 47/3/1 48/4/1
f 49/1/1 50/2/1 51/3/1 52/4/1
f 53/1/1 54/2/1 55/3/1 56/4/1
f 57/1/1 58/2/1 59/3/1 60/4/1
f 61/1/1 62/2/1 63/3/1 64/4/1
f 65/5/1 66/6/1 67/7/1 68/8/1
f 69/9/1 70/10/1 71/11/1 72/12/1
f 73/9/1 74/10/1 75/11/1 76/12/1
f 77/5/1 78/6/1 79/7/1 80/8/1
f 81/9/1 82/10/1 83/11/1 84/12/1
f 85/9/1 86/10/1 87/11/1 88/12/1
f 89/9/1 90/10/1 91/11/1 92/12/1
f 93/1/1 94/2/1 95/3/1 96/4/1
f 97/9/1 98/10/1 99/11/1 100/12/1
f 101/1/1 102/2/1 103/3/1 104/4/1
f 105/5/1 106/6/1 107/7/1 108/8/1
f 109/9/1 110/10/1 111/11/1 112/12/1
f 113/1/1 114/2/1 115/3/1 116/4/1
f 117/1/1 118/2/1 119/3/1 120/4/1
f 121/1/1 122/2/1 123/3/1 124/4/1
f 125/5/1 126/6/1 127/7/1 128/8/1
f 129/9/1 130/10/1 131/11/1 132/12/1
f 133/1/1 134/2/1 135/3/1 136/4/1
f 137/1/1 138/2/1 139/3/1 140/4/1
f 141/5/1 142/6/1 143/7/1 144/8/1
f 145/9/1 146/10/1 147/11/1 148/12/1
f 149/1/1 150/2/1 151/3/1 152/4/1
f 153/9/1 154/10/1 155/11/1 156/12/1
f 157/1/1 158/2/1 159/3/1 160/4/1
f 161/1/1 162/2/1 163/3/1 164/4/1
f 165/1/1 166/2/1 167/3/1 168/4/1
f 169/5/1 170/6/1 171/7/1 172/8/1
f 173/1/1 174/2/1 175/3/1 176/4/1
f 177/9/1 178/10/1 179/11/1 180/12/1
f 181/5/1 182/6/1 183/7/1 184/8/1
f 185/1/1 186/2/1 187/3/1 188/4/1
f 189/1/1 190/2/1 191/3/1 192/4/1
f 193/9/1 194/10/1 195/11/1 196/12/1
f 197/5/1 198/6/1 199/7/1 200/8/1
f 201/1/1 202/2/1 203/3/1 204/4/1
f 205/5/1 206/6/1 207/7/1 208/8/1
f 209/5/1 210/6/1 211/7/1 212/8/1
f 213/9/1 214/10/1 215/11/1 216/12/1
f 217/5/1 218/6/1 219/7/1 220/8/1
f 221/1/1 222/2/1 223/3/1 224/4/1
f 225/9/1 226/10/1 227/11/1 228/12/1
f 229/9/1 230/10/1 231/11/1 232/12/1
f 233/1/1 234/2/1 235/3/1 236/4/1
f 237/9/1 238/10/1 239/11/1 240/12/1
f 241/5/1 242/6/1 243/7/1 244/8/1
f 245/5/1 246/6/1 247/7/1 248/8/1
f 249/5/1 250/6/1 251/7/1 252/8/1
f 253/1/1 254/2/1 255/3/1 256/4/1
f 257/1/1 258/2/1 259/3/1 260/4/1
f 261/1/1 262/2/1 263/3/1 264/4/1
f 265/1/1 266/2/1 267/3/1 268/4/1
f 269/1/1 270/2/1 271/3/1 272/4/1
f 273/9/1 274/10/1 275/11/1 276/12/1
f 277/9/1 278/10/1 279/11/1 280/12/1
f 281/9/1 282/10/1 283/11/1 284/12/1
f 285/1/1 286/2/1 287/3/1 288/4/1
f 289/1/1 290/2/1 291/3/1 292/4/1
f 293/1/1 294/2/1 295/3/1 296/4/1
f 297/1/1 298/2/1 299/3/1 300/4/1
f 301/1/1 302/2/1 303/3/1 304/4/1
f 305/1/1 306/2/1 307/3/1 308/4/1
f 309/1/1 310/2/1 311/3/1 312/4/1
f 313/1/1 314/2/1 315/3/1 316/4/1
f 317/1/1 318/2/1 319/3/1 320/4/1

