# Tiled2Unity generated file. Do not modify by hand.
# Wavefront file for 'Room_mesh_0004.obj'

# Vertices (Count = 60)
v -16 -48 0
v -32 -48 0
v -32 -32 0
v -16 -32 0
v -32 -48 0
v -48 -48 0
v -48 -32 0
v -32 -32 0
v -48 -48 0
v -64 -48 0
v -64 -32 0
v -48 -32 0
v -80 -48 0
v -96 -48 0
v -96 -32 0
v -80 -32 0
v -112 -48 0
v -128 -48 0
v -128 -32 0
v -112 -32 0
v -128 -48 0
v -144 -48 0
v -144 -32 0
v -128 -32 0
v -144 -48 0
v -160 -48 0
v -160 -32 0
v -144 -32 0
v -80 -64 0
v -96 -64 0
v -96 -48 0
v -80 -48 0
v -16 -80 0
v -32 -80 0
v -32 -64 0
v -16 -64 0
v -112 -80 0
v -128 -80 0
v -128 -64 0
v -112 -64 0
v -128 -80 0
v -144 -80 0
v -144 -64 0
v -128 -64 0
v -16 -96 0
v -32 -96 0
v -32 -80 0
v -16 -80 0
v -32 -96 0
v -48 -96 0
v -48 -80 0
v -32 -80 0
v -48 -96 0
v -64 -96 0
v -64 -80 0
v -48 -80 0
v -64 -96 0
v -80 -96 0
v -80 -80 0
v -64 -80 0

# Texture cooridinates (Count = 56)
vt 0.2985537 0.7110266
vt 0.3150826 0.7110266
vt 0.3150826 0.7414448
vt 0.2985537 0.7414448
vt 0.5092975 0.6140684
vt 0.5258265 0.6140684
vt 0.5258265 0.6444867
vt 0.5092975 0.6444867
vt 0.5092975 0.6463878
vt 0.5258265 0.6463878
vt 0.5258265 0.6768061
vt 0.5092975 0.6768061
vt 0.5268595 0.6140684
vt 0.5433884 0.6140684
vt 0.5433884 0.6444867
vt 0.5268595 0.6444867
vt 0.5444215 0.6463878
vt 0.5609504 0.6463878
vt 0.5609504 0.6768061
vt 0.5444215 0.6768061
vt 0.5444215 0.6140684
vt 0.5609504 0.6140684
vt 0.5609504 0.6444867
vt 0.5444215 0.6444867
vt 0.9483471 0.743346
vt 0.9648761 0.743346
vt 0.9648761 0.7737643
vt 0.9483471 0.7737643
vt 0.5444215 0.9695817
vt 0.5609504 0.9695817
vt 0.5609504 1
vt 0.5444215 1
vt 0.4917355 0.9695817
vt 0.5082645 0.9695817
vt 0.5082645 1
vt 0.4917355 1
vt 0.2634298 0.8726236
vt 0.2799587 0.8726236
vt 0.2799587 0.9030418
vt 0.2634298 0.9030418
vt 0.3688017 0.8726236
vt 0.3853306 0.8726236
vt 0.3853306 0.9030418
vt 0.3688017 0.9030418
vt 0.4566116 0.8726236
vt 0.4731405 0.8726236
vt 0.4731405 0.9030418
vt 0.4566116 0.9030418
vt 0.4741735 0.8079848
vt 0.4907025 0.8079848
vt 0.4907025 0.838403
vt 0.4741735 0.838403
vt 0.3863636 0.8726236
vt 0.4028926 0.8726236
vt 0.4028926 0.9030418
vt 0.3863636 0.9030418

# Normal
vn 0 0 -1

# Mesh description
g Room_mesh_0004

# Faces
f 1/1/1 2/2/1 3/3/1 4/4/1
f 5/5/1 6/6/1 7/7/1 8/8/1
f 9/9/1 10/10/1 11/11/1 12/12/1
f 13/13/1 14/14/1 15/15/1 16/16/1
f 17/17/1 18/18/1 19/19/1 20/20/1
f 21/21/1 22/22/1 23/23/1 24/24/1
f 25/1/1 26/2/1 27/3/1 28/4/1
f 29/25/1 30/26/1 31/27/1 32/28/1
f 33/29/1 34/30/1 35/31/1 36/32/1
f 37/33/1 38/34/1 39/35/1 40/36/1
f 41/37/1 42/38/1 43/39/1 44/40/1
f 45/41/1 46/42/1 47/43/1 48/44/1
f 49/45/1 50/46/1 51/47/1 52/48/1
f 53/49/1 54/50/1 55/51/1 56/52/1
f 57/53/1 58/54/1 59/55/1 60/56/1

